<svg width="401" height="1040" viewBox="0 0 401 1040" fill="none" xmlns="http://www.w3.org/2000/svg">
<path d="M91.5581 7.13449C99.1679 7.03435 106.339 7.2232 113.491 6.94252C115.328 6.87046 117.742 5.78878 118.799 4.36205C122.939 -1.22827 128.798 -1.64062 132.586 4.26177C134.326 6.97303 136.011 8.17369 139.165 8.3534C144.548 8.66007 149.89 9.78098 155.271 9.9946C169.233 10.5489 183.207 10.8183 197.177 11.1483C200.494 11.2267 203.853 11.3991 207.129 11.0069C217.296 9.79011 226.018 13.4119 234.219 18.774C239.542 22.2545 245.16 24.02 251.479 25.4745C259.922 27.4181 268.119 26.5317 276.402 26.9535C278.726 27.0718 281.09 25.8027 283.477 25.4516C285.232 25.1936 288.462 24.973 288.608 25.462C289.342 27.9128 290.207 30.9948 289.307 33.1316C287.094 38.3885 283.952 43.2561 281.16 48.2673C279.455 51.3272 277.811 54.4299 275.923 57.3741C275.254 58.4158 274.004 59.6476 272.914 59.7588C267.842 60.2761 262.733 60.431 257.347 60.7318C254.615 64.2608 256.327 66.8448 259.865 69.4925C263.633 72.3123 266.76 75.9927 270.545 78.7832C272.071 79.9081 274.61 80.0101 276.677 79.9709C279.959 79.9086 283.233 79.3375 287.229 78.9034C288.484 76.8224 290.113 73.7321 292.112 70.9037C294.47 67.5686 297.15 64.3404 301.677 64.0994C304.425 63.9531 308.836 63.3266 309.601 64.6246C310.963 66.9357 310.201 70.5431 310.196 73.6081C310.184 82.28 309.99 90.9542 310.161 99.6217C310.191 101.168 311.624 102.688 312.409 104.22C312.884 104.215 313.358 104.21 313.832 104.205C314.233 102.687 314.734 101.189 315.012 99.6492C315.496 96.9674 315.389 94.071 316.41 91.6334C317.056 90.0917 319.22 88.4702 320.852 88.2994C322.014 88.1777 324.042 90.1829 324.583 91.6459C325.519 94.1791 325.94 97.0245 325.968 99.7451C326.017 104.555 326.921 108.502 329.84 112.875C333.771 118.765 335.578 126.102 338.105 132.889C340.232 138.6 341.526 144.684 344.172 150.125C350.526 163.193 357.326 176.052 364.302 188.8C365.318 190.659 368.133 191.922 370.378 192.645C376.791 194.713 378.154 198.658 373.87 203.792C373.337 204.431 372.789 205.058 372.378 205.539C376.578 216.859 381.101 227.972 384.822 239.348C389.25 252.889 393.08 266.63 396.978 280.338C398.384 285.283 399.889 290.347 400.184 295.425C400.602 302.622 394.823 305.867 389.575 309.137C382.083 313.803 373.601 314.827 365.112 316.118C360.251 316.857 355.607 318.961 350.755 319.851C346.245 320.679 341.573 320.577 337 321.119C323.853 322.676 310.756 325.051 297.568 325.75C287.815 326.266 277.949 324.676 268.135 323.994C259.95 323.425 251.768 322.812 242.921 322.171C243.343 329.648 243.595 335.833 244.064 342.002C244.782 351.445 242.99 360.482 239.98 369.351C236.003 381.07 232.002 392.781 228.039 404.505C226.291 409.677 223.12 413.483 218.225 416.102C214.573 418.058 211.263 420.653 207.399 423.231C218.013 429.578 225.829 436.864 231.569 446.641C233.282 449.557 238.104 450.482 241.041 452.883C245.893 456.85 250.368 461.279 255.008 465.506C258.662 468.836 262.384 472.094 265.972 475.492C273.021 482.168 280.312 488.626 286.938 495.702C300.512 510.198 309.23 527.022 313.448 546.785C316.196 559.665 317.065 572.363 316.988 585.302C316.954 591.065 315.901 596.845 316.151 602.582C316.505 610.731 316.257 618.959 323.66 625.31C327.77 628.836 327.133 641.924 323.136 646.087C322.691 646.551 321.855 646.978 321.263 646.907C316.828 646.373 314.113 649.034 310.887 651.519C305.699 655.514 299.882 658.705 294.262 662.122C291.593 663.745 287.963 664.457 286.152 666.699C279.237 675.256 271.503 672.331 263.549 669.192C262.934 668.949 262.29 668.782 261.235 668.443C259.471 678.382 259.495 688.243 260.829 698.154C262.438 710.107 264.689 723.075 257.519 733.102C250.329 743.156 252.744 752.523 254.381 762.431C255.604 769.836 255.889 776.949 254.202 784.356C251.463 796.384 248.785 808.495 247.368 820.72C246.82 825.444 249.195 830.837 251.274 835.46C254.921 843.568 258.162 851.517 259.408 860.562C260.315 867.147 264.289 873.325 266.987 879.645C269.041 884.453 271.234 889.202 273.375 893.972C274.739 897.01 282.687 899.638 286.683 898.74C289.336 898.144 292.14 898.246 294.865 897.931C298.463 897.514 300.954 898.995 303.338 901.685C305.033 903.597 307.162 905.157 310.552 903.272C313.567 901.595 318.121 905.757 319.058 910.351C319.449 912.271 319.575 914.26 320.118 916.131C321.43 920.66 324.399 923.61 328.956 925.013C336.131 927.223 343.521 929.137 349.061 934.636C354.252 939.789 356.152 946.28 353.415 953.037C350.172 961.047 345.803 968.594 342.128 976.439C338.871 983.391 335.392 990.31 332.996 997.569C331.65 1001.65 332.5 1006.4 331.994 1010.81C331.541 1014.76 331.246 1018.93 329.727 1022.52C325.666 1032.09 317.008 1036.46 307.609 1037.79C297.349 1039.25 286.805 1038.7 276.386 1039.06C273.239 1039.18 273.04 1037.24 273.005 1034.82C272.951 1031.09 273.998 1028.6 278.218 1027.98C280.824 1027.6 283.307 1026.38 285.851 1025.56C290.872 1023.93 291.379 1019.34 291.902 1015.31C292.707 1009.1 293.11 1002.77 292.945 996.514C292.715 987.85 291.8 979.203 291.218 971.091C281.973 971.091 273.199 971.097 264.425 971.076C263.974 971.075 263.414 970.982 263.089 970.711C258.906 967.227 254.731 963.731 250.605 960.179C247.663 957.646 245.367 959.732 243.29 961.355C237.681 965.739 232.25 970.351 226.74 974.864C222.232 978.557 218.839 978.177 213.071 975.485C206.109 972.237 198.982 969.345 192.014 966.109C183.767 962.279 176.92 956.702 171.927 949.017C168.055 943.059 165.403 942.712 159.574 947.019C153.905 951.208 147.699 954.744 142.428 959.365C140.355 961.182 139.887 965.099 139.218 968.174C138.512 971.421 138.703 974.862 138.012 978.113C137.352 981.221 135.641 984.127 135.145 987.242C134.37 992.106 132.285 995.549 127.559 997.371C124.643 998.495 123.77 999.96 124.915 1003.73C127.352 1011.75 131.828 1017.51 139.213 1021.17C144.096 1023.59 145.836 1028.14 146.918 1032.95C147.403 1035.1 147.01 1037.1 143.7 1037.15C133.616 1037.29 123.529 1038.13 113.456 1037.95C102.252 1037.75 91.0454 1036.93 79.8715 1036C72.5481 1035.39 69.3353 1029.77 67.1044 1023.7C64.5652 1016.79 65.1729 1009.72 65.8463 1002.44C66.9075 990.974 66.6633 979.387 67.0873 967.854C67.232 963.918 68.1345 959.968 67.8722 956.079C67.7543 954.331 65.9256 951.647 64.3642 951.211C49.1514 946.964 48.4121 936.519 49.1319 924.23C49.5972 916.287 51.5418 908.425 51.9379 900.483C52.8983 881.226 56.1882 862.348 60.0253 843.519C60.3611 841.872 60.4262 839.6 59.5541 838.374C55.8049 833.104 51.3818 828.306 47.7434 822.969C44.7728 818.611 41.5067 814.001 40.2471 809.027C37.8059 799.388 36.2653 789.462 35.1212 779.567C33.6896 767.183 32.5003 754.724 32.1784 742.272C31.789 727.212 34.0114 712.315 37.2874 697.601C37.6761 695.855 37.9985 694.05 38.0087 692.271C38.0736 680.94 37.5991 669.586 38.1776 658.284C38.6739 648.585 36.3889 639.421 34.6674 630.098C34.0823 626.93 33.5238 623.752 33.0913 620.56C32.6447 617.264 31.6665 616.91 28.1871 617.923C22.9852 619.438 17.3373 619.489 11.8599 619.914C11.099 619.973 9.61799 618.702 9.50862 617.904C8.84626 613.073 8.32063 608.327 11.6295 603.897C19.4929 593.369 20.4563 587.726 11.0958 577.422C1.90431 567.304 0.473705 562.346 5.99458 548.925C6.96913 546.556 8.03047 543.921 7.91413 541.463C7.59346 534.688 12.1191 531.867 16.8863 528.894C18.4707 527.906 20.2311 526.503 20.8976 524.875C22.6725 520.54 23.9667 516 25.2956 511.495C25.6906 510.156 26.2334 508.016 25.5782 507.343C18.8758 500.457 22.616 492.392 22.8245 484.784C22.9448 480.389 23.9512 476.005 23.9155 471.622C23.894 468.971 23.1704 466.026 21.8542 463.735C14.4393 450.827 10.3983 437.009 7.77894 422.334C4.62007 404.637 4.70674 386.779 2.75398 369.082C0.483288 348.503 -0.301441 327.965 0.100842 307.351C0.409802 291.518 1.48268 275.701 2.09852 259.873C2.81318 241.508 4.06117 223.13 3.86305 204.771C3.6479 184.832 2.22084 164.897 0.970715 144.983C0.0777706 130.758 0.541149 116.656 3.01295 102.627C3.91529 97.5061 5.266 92.4421 5.7895 87.2888C5.95478 85.6617 4.1349 83.8074 3.15431 82.0967C2.16316 80.3675 0.390515 78.7124 0.32832 76.9758C0.295117 76.0497 3.04194 74.4931 4.7267 74.1398C9.07521 73.2277 8.57472 69.6062 8.95118 66.8394C10.4708 55.6724 11.2185 44.3843 13.1354 33.2937C14.2442 26.8794 16.7244 20.6236 19.2759 14.5876C19.9968 12.8823 23.1245 11.2762 25.1859 11.2278C31.4014 11.0818 37.6358 11.9963 43.8619 11.9865C50.6297 11.9758 57.4295 11.7008 64.1555 10.9821C73.1711 10.0187 82.1294 8.51853 91.5581 7.13449ZM110.114 139.906C111.867 132.702 113.022 125.275 115.592 118.374C117.21 114.029 117.504 111.302 112.927 109.293C116.442 102.54 119.831 96.0279 122.771 90.3782C126.174 89.6483 130.048 89.9643 132.058 88.1805C139.338 81.7198 146.834 83.9673 154.605 86.2685C158.25 87.3478 161.942 88.3633 165.681 89.0114C174.624 90.5612 183.661 91.6128 192.555 93.3884C197.566 94.3889 202.384 96.3862 207.26 98.0212C208.701 98.5047 210.127 99.1505 211.418 99.9501C216.923 103.359 220.331 108.478 223.597 113.979C233.863 131.276 232.577 147.036 222.922 163.811C219.034 170.567 216.486 178.083 213.08 185.133C210.456 190.564 208.915 196.423 203.908 200.772C194.882 208.611 185.608 215.816 174.441 220.398C172.7 221.112 171.521 223.195 170.081 224.646C171.562 226.04 172.827 227.847 174.562 228.753C180.035 231.608 185.605 234.331 192.172 233.129C193.006 232.976 194.018 234.123 195.015 234.477C197.654 235.413 200.322 236.95 202.993 236.981C209.747 237.059 216.536 236.705 223.258 236.006C227.472 235.568 230.203 237.475 231.667 240.71C233.456 244.666 236.798 245.041 240.187 246.111C247.599 248.45 255.244 250.434 262.17 253.833C270.25 257.799 277.838 261.963 287.385 261.212C294.037 260.689 301.004 260.7 307.47 262.117C317.062 264.218 326.334 267.776 337.041 271.119C336.652 267.588 335.982 264.84 336.112 262.13C336.77 248.361 331.49 235.686 329.136 222.478C328.458 218.677 326.627 216.91 323.01 215.93C318.669 214.754 317.122 209.486 320.323 206.407C323.413 203.434 323.462 201.293 322.278 196.921C317.708 180.049 311.701 163.813 302.757 148.883C299.463 143.384 294.515 138.119 289.064 134.837C279.817 129.272 272.237 123.141 271.077 111.758C270.204 103.193 265.841 97.1891 259.906 91.0183C253.725 84.5926 246.991 79.6911 239.153 76.0408C235.159 74.1802 231.244 72.4743 228.334 68.9602C226.332 66.5434 224.267 64.0203 221.748 62.2207C213.522 56.345 206.568 48.195 196.068 46.1831C186.947 44.4352 177.721 42.7249 168.479 42.2698C161.011 41.9021 153.186 42.4605 146.013 44.417C140.097 46.0306 133.468 47.0519 129.826 54.3353C125.927 62.1298 124.926 61.6096 117.844 56.2682C116.791 55.4739 115.023 54.9524 113.77 55.207C105.104 56.9672 96.4822 58.9482 87.8546 60.8949C80.6527 62.5199 73.6223 64.8627 65.9574 63.2578C62.9941 62.6373 61.8884 65.2571 62.0719 68.2313C62.2557 71.2097 62.1108 74.2082 62.1143 77.1979C62.122 83.5222 62.0989 89.8467 62.1497 96.1707C62.2194 104.862 62.4579 113.553 62.4179 122.243C62.3735 131.886 60.1693 141.359 63.5821 151.149C69.7211 168.759 78.207 185.993 75.2141 205.695C74.8151 208.322 76.7236 211.3 77.8629 215.119C79.0589 212.811 79.8396 211.598 80.3447 210.28C82.9287 203.534 86.4385 197.657 93.6522 194.876C94.5346 194.535 95.5343 193.46 95.7325 192.561C96.6799 188.263 97.3696 183.908 97.987 180.482C100.102 178.286 103.246 176.546 103.77 174.217C106.256 163.174 108.027 151.971 110.114 139.906Z" fill="#A3A3A3"/>
</svg>
