<svg width="605" height="705" viewBox="0 0 605 705" fill="none" xmlns="http://www.w3.org/2000/svg">
<path d="M210.672 321.751C211.605 310.815 208.425 301.008 206.234 291.003C203.411 278.115 201.052 265.121 198.71 252.134C196.876 241.965 194.469 231.78 193.992 221.524C193.573 212.515 195.404 203.389 196.408 194.334C196.671 191.961 196.918 190.445 193.823 189.664C186.66 187.855 179.365 186.137 172.605 183.255C158.757 177.351 145.141 170.878 131.615 164.261C127.759 162.374 124.502 159.235 121.04 156.58C115.964 152.686 110.735 148.956 105.957 144.721C94.9061 134.926 82.7693 126.236 75.4171 112.721C73.5469 109.284 69.2445 106.8 65.5535 104.822C61.5334 102.668 59.1354 100.065 59.7203 95.4883C60.3634 90.4565 57.8087 87.7681 53.7405 85.4635C47.4579 81.9043 41.525 77.7274 35.2393 74.1741C32.3267 72.5276 28.8507 71.9122 25.7765 70.5086C21.585 68.5948 17.6015 66.2208 13.392 64.3524C11.3799 63.4594 9.06689 62.9298 6.86535 62.8391C1.12561 62.6028 -1.94025 57.8266 1.3493 53.0634C2.78759 50.9807 6.06427 48.9902 8.49945 48.9982C15.3145 49.0205 22.119 50.205 28.9446 50.6953C30.4216 50.8014 32.2667 50.309 33.4273 49.42C36.525 47.0471 39.3416 44.3075 42.2717 41.7155C46.6242 37.8651 57.4738 39.5128 61.0251 44.2043C63.2119 47.0933 66.5846 49.1379 68.5339 52.1401C71.0472 56.0107 72.9866 60.3431 74.5886 64.6919C76.2697 69.2554 76.7207 73.9425 83.1971 75.0937C86.7915 75.7326 89.5422 78.9513 91.756 82.8724C94.3796 87.5192 98.9905 91.3559 103.428 94.6032C113.484 101.962 124.006 108.68 134.231 115.813C136.227 117.206 138.075 119.075 139.404 121.108C142.906 126.466 148.071 125.944 153.36 125.786C159.381 125.606 165.482 125.221 171.419 125.958C178.271 126.81 184.667 127.078 191.526 124.964C197.629 123.083 204.424 123.487 210.899 122.752C215.905 122.184 220.878 121.318 225.887 120.775C228.341 120.509 230.899 120.332 233.309 120.728C237.234 121.374 239.322 119.124 241.604 116.626C243.203 114.876 245.323 113.614 247.061 111.975C249.289 109.875 251.539 107.756 253.467 105.391C256.07 102.198 258.376 98.7633 261.336 94.7109C260.097 91.734 258.631 87.4077 256.452 83.4761C255.826 82.3454 253.146 82.3526 250.175 81.4735C250.48 80.2474 250.335 77.3606 251.707 75.9541C256.585 70.9533 254.521 64.9787 254.539 59.4162C254.554 54.9278 252.994 50.4449 252.898 45.9432C252.712 37.1869 255.827 29.5251 261.874 23.1025C266.148 18.5622 270.373 13.9751 274.625 9.41335C278.86 4.87036 284.037 2.78827 290.293 2.64885C293.427 2.57903 296.528 1.321 299.657 0.663087C300.997 0.381441 302.616 -0.307814 303.689 0.156618C311.097 3.3643 318.981 5.68005 324.676 12.0861C327.236 14.9669 331.599 16.5994 333.327 19.784C335.923 24.5661 337.07 30.1731 338.567 35.5043C341.671 46.5655 340.028 57.505 336.495 68.0617C335.077 72.2981 334.083 75.7446 336.446 79.885C337 80.8548 335.736 83.6295 334.53 84.6878C331.319 87.5064 329.454 90.5918 328.474 94.921C327.6 98.7817 324.739 102.193 323.028 105.305C326.911 107.299 331.902 109.134 336.031 112.149C342.779 117.076 350.765 118.507 358.35 119.443C368.973 120.754 379.881 119.668 390.665 119.813C393.679 119.854 396.815 120.213 399.668 121.132C408.41 123.949 416.904 123.252 425.471 120.419C427.559 119.729 429.946 119.869 432.202 119.778C441.111 119.418 450.029 119.224 458.929 118.697C460.506 118.604 462.261 117.497 463.503 116.379C471.483 109.195 479.186 101.695 487.297 94.6653C493.163 89.5812 499.805 85.3759 505.532 80.155C508.25 77.678 509.953 73.8881 511.54 70.4286C513.069 67.0936 515.105 64.6476 518.652 63.7241C523.096 62.5669 528.589 57.4677 528.52 52.9279C528.355 42.057 536.24 36.0135 542.221 28.9225C545.311 25.2598 552.151 26.4981 556.26 30.6654C561.741 36.2242 568.191 38.1931 575.845 36.2206C577.565 35.7775 579.443 35.7499 581.235 35.8268C586.803 36.0656 592.363 36.6502 597.931 36.7059C602.112 36.7478 604.675 38.3448 604.603 42.603C604.522 47.3324 599.94 46.5389 597.603 46.6009C591.073 46.7742 584.977 47.8061 579.235 51.1086C584.359 53.7977 584.705 54.3593 584.455 60.3432C579.378 61.1372 573.925 61.3078 568.959 62.9509C563.547 64.7416 558.517 67.7681 553.46 70.5131C550.911 71.8965 548.755 73.9865 546.268 75.5075C543.433 77.2423 542.351 79.1632 543.401 82.6682C544.836 87.4594 542.606 91.2071 537.603 92.787C533.893 93.959 531.697 96.8915 530.85 99.8829C527.587 111.408 518.539 118.31 510.755 126.178C501.876 135.152 492.944 144.131 483.371 152.334C479.034 156.05 473.259 158.294 467.853 160.514C454.919 165.824 441.925 171.034 428.746 175.693C418.042 179.478 407.035 182.404 395.351 185.957C396.482 191.056 397.932 196.645 398.933 202.312C400.659 212.081 402.31 221.872 403.62 231.704C405.419 245.21 398.419 255.253 389.624 264.17C386.573 267.263 386.189 270.378 386.854 274.038C389.414 288.112 391.891 302.206 394.79 316.212C395.863 321.395 398.523 326.254 399.557 331.441C401.04 338.883 401.48 346.525 402.757 354.015C404.554 364.549 406.411 375.092 408.819 385.497C410.408 392.365 412.881 399.045 415.21 405.721C416.559 409.588 415.575 411.581 411.427 411.743C407.424 411.9 403.387 411.562 399.421 411.979C398.497 412.076 396.869 414.611 397.14 415.587C402.645 435.401 400.613 455.643 400.43 475.716C400.319 487.928 399.022 500.167 397.597 512.317C396.481 521.831 392.761 530.616 388.06 539.005C375.768 560.94 360.828 581.098 346.408 601.611C341.223 608.985 336.095 616.405 331.124 623.924C323.997 634.702 314.873 643.367 303.735 649.804C300.089 651.911 299.429 654.494 299.765 658.356C299.954 660.532 299.141 663.295 297.784 665.004C294.978 668.539 294.333 672.656 297.861 675.282C303.414 679.414 307.586 685.326 315.633 686.29C322.18 687.073 325.039 693.328 326.642 699.275C326.957 700.443 324.625 703.668 323.565 703.645C316.584 703.489 309.615 702.743 302.649 702.107C298.758 701.751 294.862 701.365 291.004 700.765C282.925 699.51 274.913 697.569 266.793 696.91C258.516 696.238 250.139 696.898 241.812 696.697C239.003 696.629 236.215 695.71 233.417 695.18C233.484 694.765 233.55 694.349 233.617 693.934C233.373 694.076 232.946 694.186 232.913 694.367C230.996 704.813 230.987 705.118 220.448 704.709C200.461 703.934 180.495 702.628 160.509 701.834C151.18 701.464 141.823 701.85 132.48 701.727C129.556 701.689 126.549 701.431 123.753 700.652C122.21 700.222 119.898 698.467 119.932 697.37C119.99 695.446 121.097 692.623 122.621 691.838C129.012 688.546 135.808 686.053 142.287 682.918C148.539 679.893 154.562 676.398 160.726 673.187C164.379 671.283 168.231 669.732 171.75 667.616C173.355 666.651 175.177 664.854 175.493 663.171C176.306 658.837 176.236 654.346 176.718 649.939C176.944 647.878 177.903 645.886 178.035 643.831C178.185 641.486 178.23 638.965 177.538 636.767C175.626 630.695 173.043 624.829 171.22 618.734C169.384 612.594 167.803 606.335 166.736 600.022C165.651 593.599 165.01 587.061 164.738 580.549C164.184 567.29 164.328 553.997 163.57 540.753C163.038 531.476 161.459 522.26 160.398 513.012C158.934 500.249 158.681 487.797 164.736 475.697C167.774 469.624 168.496 462.434 170.8 455.939C172.895 450.031 175.997 444.483 178.136 438.588C180.476 432.137 182.813 425.581 184.075 418.869C185.729 410.072 191.864 403.87 195.643 396.335C201.09 385.471 206.478 374.786 206.802 362.084C207.049 352.401 208.941 342.765 209.989 333.096C210.379 329.497 210.449 325.863 210.672 321.751ZM239.158 650.761C238.324 650.829 236.784 650.818 236.766 650.978C236.605 652.409 236.524 653.905 236.79 655.313C237.086 656.883 238.672 658.937 238.131 659.817C235.48 664.127 232.308 668.115 228.987 672.675C230.975 679.926 231.559 680.937 232.911 681.167C236.875 672.69 240.68 664.554 244.69 655.978C243.161 654.537 241.43 652.905 239.158 650.761Z" fill="#A3A3A3"/>
</svg>
