<svg width="527" height="817" viewBox="0 0 527 817" fill="none" xmlns="http://www.w3.org/2000/svg">
<path d="M310.021 157.927C311.372 160.992 312.416 163.889 314.144 166.294C320.215 174.748 318.512 184.117 316.344 192.846C314.093 201.904 309.753 210.444 306.228 219.464C309.833 219.918 314.672 219.407 318.339 221.241C324.401 224.271 331.111 224.474 337.372 227.052C345.862 230.546 352.913 236 360.948 239.898C362.354 240.58 364.065 240.983 365.621 240.944C373.924 240.735 380.564 243.595 385.398 252.275C387.049 248.797 388.43 246.365 389.385 243.777C391.364 238.411 393.157 232.975 394.922 227.535C395.217 226.627 395.05 225.545 394.989 224.55C394.403 215.136 394.397 215.137 397.656 208.431C392.203 202.91 386.907 197.479 381.517 192.144C380.375 191.013 378.884 190.237 377.565 189.28C371.722 185.039 365.905 180.762 360.035 176.559C356.454 173.996 355.166 170.632 356.232 166.045C364.085 164.793 368.175 172.977 373.828 173.728C377.069 169.488 379.421 165.285 382.813 162.24C387.858 157.711 395.486 157.085 400.454 159.463C407.801 162.978 407.544 159.123 409.102 154.527C412.445 144.668 416.649 142.849 430.602 144.403C431.44 147.178 431.048 149.086 427.968 150.636C418.997 155.15 419.067 155.285 421.495 165.155C421.691 165.952 422.035 166.783 421.96 167.564C421.23 175.08 423.017 182.103 425.452 189.152C426.361 191.783 425.956 195.062 425.47 197.931C424.898 201.31 425.137 203.845 427.188 207.03C431.854 214.272 433.066 221.985 428.984 230.522C426.296 236.142 425.812 242.78 423.969 248.849C421.521 256.913 418.829 264.91 416.003 272.851C414.728 276.436 412.701 279.748 411.334 283.306C409.683 287.606 405.998 288.42 402.228 288.945C398.406 289.477 394.526 289.592 389.926 289.948C401.123 297.223 411.598 304.114 422.163 310.862C428.319 314.793 434.433 318.86 440.911 322.194C446.681 325.164 453.514 326.327 458.831 329.862C467.952 335.926 476.356 343.096 484.862 350.045C488.992 353.419 492.548 357.488 496.595 360.975C500.342 364.205 504.706 365.071 510.283 362.286C511.611 365.991 512.7 369.409 514.095 372.696C514.537 373.738 515.7 374.577 516.702 375.262C522.87 379.481 527.613 384.697 525.847 392.717C525.057 396.302 522.685 399.647 520.603 402.82C514.054 412.801 504.105 418.747 494.094 424.556C491.508 426.056 485.747 423.889 486.238 421.365C487.879 412.934 481.656 406.75 480.724 399.175C480.238 395.227 480.138 391.231 479.854 387.113C467.372 379.643 454.398 371.595 441.143 364.041C431.235 358.395 421.089 353.126 410.817 348.171C401.173 343.519 391.322 339.253 381.367 335.31C376.89 333.537 371.844 333.255 367.219 331.782C357.934 328.825 348.788 325.43 339.528 322.386C335.267 320.985 330.032 319.355 328.012 324.869C326.265 329.636 322.964 334.008 323.823 339.866C324.608 345.221 325.348 350.022 329.442 354.156C335.928 360.705 341.993 367.686 347.985 374.698C349.474 376.441 350.177 378.947 350.935 381.205C353.022 387.419 354.941 393.689 356.936 399.934C357.458 401.569 358.043 403.185 358.554 404.824C360.839 412.144 363.359 419.404 365.317 426.812C367.481 435.001 369.287 443.295 370.929 451.607C371.745 455.734 369.326 458.594 366.285 461.253C364.975 462.399 364.464 464.753 364.155 466.65C363.94 467.972 365.106 469.508 364.926 470.851C364.249 475.919 366.294 479.952 369.175 483.807C371.452 486.856 373.917 489.824 375.739 493.136C378.229 497.664 376.688 501.963 374.396 506.306C371.604 511.596 369.07 517.076 367.065 522.702C366.244 525.009 367.272 527.921 367.138 530.541C366.995 533.342 367.415 536.848 365.935 538.776C361.867 544.076 362.898 549.241 364.498 554.82C365.069 556.811 365.093 559.062 364.892 561.149C364.406 566.181 363.422 571.17 363.04 576.206C362.506 583.257 362.497 590.35 361.906 597.394C361.746 599.296 360.64 601.385 359.368 602.876C355.869 606.979 355.428 611.529 356.338 616.557C356.802 619.115 357.26 621.813 356.894 624.327C356.701 625.652 354.707 627.76 353.567 627.734C345.272 627.541 342.636 634.223 338.951 639.435C331.836 649.497 332.201 660.767 334.488 672.153C335.889 679.124 334.351 682.941 327.962 686.36C324.462 688.233 322.346 690.71 322.972 694.962C323.189 696.429 322.78 697.996 323.04 699.449C324.005 704.853 321.729 707.854 316.757 709.966C315.079 710.678 313.279 714.034 313.543 715.897C315.027 726.357 313.907 729.344 304.161 732.936C300.495 734.288 300.892 736.036 301.441 738.771C302.436 743.722 303.46 749.154 299.456 752.964C295.818 756.426 291.202 758.941 286.796 761.492C282.424 764.023 277.688 765.925 273.299 768.43C271.833 769.266 270.738 770.989 269.831 772.519C268.03 775.557 266.289 778.663 264.927 781.91C264.469 783.003 264.758 785.382 265.516 785.844C268.792 787.841 272.264 789.625 275.862 790.956C280.196 792.559 284.781 793.476 289.156 794.984C291.382 795.752 294.356 804.693 293.718 807.696C291.54 817.943 291.506 817.802 280.424 816.086C273.823 815.063 267.066 815.034 260.474 813.97C253.504 812.845 246.357 811.779 239.827 809.276C234.105 807.084 228.75 804.321 222.446 803.943C218.159 803.686 218.48 799.911 218.585 797.034C218.702 793.831 218.948 790.424 220.132 787.509C222.835 780.857 219.298 776.869 214.901 773.005C214.416 772.579 213.392 772.186 213.419 771.842C213.909 765.756 208.368 763.74 205.614 759.84C203.897 757.408 202.485 754.334 202.177 751.417C201.417 744.204 201.379 736.916 201.028 729.66C200.972 728.507 201.187 727.097 200.615 726.253C195.687 718.974 197.213 710.487 196.013 702.525C195.163 696.89 194.526 691.222 193.772 685.572C192.712 677.626 186.291 678.233 180.906 677.983C173.433 677.636 167.226 674.073 162.359 669.393C158.166 665.361 155.66 659.385 153.028 653.966C149.887 647.501 147.496 640.676 144.62 634.076C140.612 624.876 136.468 615.735 132.355 606.581C130.496 602.445 128.936 598.115 126.584 594.276C123.605 589.415 118.403 587.268 113.389 584.944C106.004 581.521 98.6333 578.026 91.4967 574.123C82.9432 569.444 80.2715 560.855 78.0176 552.164C77.5773 550.466 77.404 548.7 77.0262 546.984C74.477 535.401 79.1023 525.698 85.7002 516.943C91.4577 509.304 96.9836 500.544 104.728 495.58C115.023 488.979 120.061 478.117 129.282 470.85C138.064 463.93 146.013 455.974 156.216 451.018C165.073 446.715 165.997 438.328 166.946 430.071C167.533 424.955 168.908 420.442 172.68 416.669C174.199 415.15 175.225 412.914 175.892 410.818C177.147 406.872 177.832 402.747 179.025 398.778C180.39 394.238 179.185 390.604 174.896 388.498C167.27 384.754 164.494 378.121 164.108 370.281C163.545 358.865 164.013 347.357 162.769 336.027C161.77 326.927 160.589 317.537 154.327 309.842C152.598 307.716 152.123 304.568 151.253 302.348C145.216 306.058 139.443 309.218 134.108 312.997C129.177 316.489 124.636 320.552 120.067 324.529C113.379 330.351 106.982 336.518 100.154 342.167C94.3609 346.96 94.8105 353.647 94.084 359.915C93.2208 367.361 92.9859 374.881 92.4791 382.363C93.2491 381.117 94.1164 379.785 94.9132 378.412C97.3582 374.199 102.219 371.527 105.747 372.49C109.276 373.453 115.011 379.876 114.942 383.33C114.821 389.394 114.472 395.461 113.973 401.507C113.707 404.73 114.092 407.642 117.452 408.649C121.925 409.989 121.676 413.261 120.407 416.129C117.111 423.581 111.305 428.359 103.993 432.262C93.3866 437.924 84.3654 432.427 75.4016 429.105C72.0162 427.851 70.0921 421.785 68.1886 417.601C65.2343 411.106 62.8679 404.344 59.8968 396.791C63.0584 391.845 59.8589 385.423 59.5708 379.028C58.931 364.833 57.9622 350.609 58.4011 336.436C58.5319 332.209 62.7569 328.029 65.3365 323.974C74.0782 310.233 85.4156 298.682 96.4184 286.796C104.037 278.567 110.751 269.485 117.656 260.618C120.26 257.276 118.671 252.885 113.455 251.383C102.145 248.125 97.0555 238.639 90.9574 230.221C84.7307 221.624 79.0824 212.608 73.2296 203.743C72.2876 202.317 71.7571 200.61 70.7696 199.223C64.0937 189.844 57.4663 180.427 50.5937 171.193C39.8187 156.716 29.6779 141.881 22.9778 124.986C21.2152 120.542 19.9076 115.899 17.8844 111.585C17.0283 109.76 15.1117 108.023 13.2524 107.146C4.06436 102.814 0.738676 100.71 6.90268 89.6551C8.91257 86.0502 5.76559 84.3569 5.2565 81.7572C4.21963 76.4616 1.76986 71.3846 1.17044 66.0743C0.152373 57.0551 1.26144 48.3178 6.22861 40.1472C10.5399 33.0555 13.6781 25.2606 17.6588 17.953C19.3353 14.8754 21.7243 12.3462 26.1322 13.3477C27.0849 13.5641 29.1936 11.7314 29.682 10.4332C31.966 4.36379 38.244 3.548 42.6349 0.322248C43.3856 -0.229204 45.7982 0.799902 47.0146 1.68661C51.4157 4.89491 52.9754 11.5798 51.1034 16.8856C49.5901 21.1752 47.4124 25.5617 47.3434 29.9338C47.278 34.0816 49.9657 38.1978 50.7036 42.456C51.3425 46.1432 51.6449 50.1623 50.8617 53.7664C49.1535 61.6273 46.2478 68.9594 38.493 73.2644C37.3032 73.9249 37.2117 76.5641 36.3434 79.0613C42.6417 77.9313 43.5191 81.0362 42.9971 85.3304C41.9456 93.9794 47.661 99.873 51.849 106.244C56.9816 114.053 62.612 121.538 68.1416 129.079C71.1393 133.168 74.6679 136.891 77.4277 141.124C80.7915 146.284 83.9179 151.654 86.5656 157.21C89.8111 164.021 94.1959 169.575 99.8474 174.691C108.526 182.546 116.321 191.387 124.378 199.917C128.421 204.198 133.147 206.544 138.899 208.237C145.822 210.274 153.119 213.181 158.503 217.767C165.146 223.426 171.664 222.339 178.935 221.632C185.632 220.982 189.053 217.162 190.952 211.326C191.49 209.673 192.283 207.716 191.863 206.202C188.879 195.43 189.878 184.645 190.864 173.752C191.299 168.949 191.056 163.796 189.74 159.197C188.024 153.2 187.884 147.526 188.924 141.465C191.141 128.539 195.428 116.601 205.242 107.532C214.294 99.1663 224.225 92.3711 237.546 92.8427C240.397 92.9436 243.101 91.7517 244.307 87.612C245.459 83.6569 249.198 80.4944 251.571 76.8347C252.41 75.5405 253.079 73.7593 252.939 72.2847C252.637 69.0994 252.698 66.5713 255.814 64.4669C257.893 63.0628 258.993 60.2875 260.919 58.557C262.565 57.0785 264.799 55.3248 266.701 55.4054C267.877 55.4552 269.576 58.6059 269.879 60.546C270.479 64.3874 270.344 68.3542 270.359 72.2697C270.363 73.3765 270.088 74.6514 269.499 75.5652C266.536 80.1692 267.755 83.5138 273.527 84.4572C272.889 88.3423 272.254 92.2032 271.62 96.0642C270.882 96.2587 270.143 96.4531 269.405 96.6476C274.305 101.131 279.715 105.183 283.967 110.214C288.543 115.629 292.494 121.716 295.827 127.984C297.862 131.809 297.529 136.876 299.496 140.759C302.192 146.082 306.072 150.803 309.409 155.804C309.739 156.298 309.827 156.954 310.021 157.927Z" fill="#A3A3A3"/>
</svg>
