<svg width="505" height="999" viewBox="0 0 505 999" fill="none" xmlns="http://www.w3.org/2000/svg">
<path d="M331.661 631.719C337.674 625.06 343.205 617.853 349.893 611.96C353.501 608.782 359.106 607.888 363.776 605.887C365.317 605.227 366.753 604.325 368.384 603.455C364.462 599.591 365.023 595.575 368.843 591.804C370.395 590.272 371.556 587.925 371.983 585.769C372.702 582.134 372.17 578.205 373.182 574.693C373.806 572.53 375.978 570.234 378.055 569.188C382.375 567.011 385.188 564.724 383.678 559.263C382.709 555.759 387.234 549.126 391.377 548.026C397.44 546.417 403.589 544.592 409.79 544.178C418.476 543.597 426.316 541.313 433.926 537.149C443.289 532.024 452.905 527.33 462.592 522.839C467.768 520.44 473.227 518.483 478.749 517.07C481.434 516.384 484.615 517.122 487.464 517.722C491.205 518.509 500.724 524.792 503.083 527.551C505.977 530.936 505.513 534.042 501.931 536.575C499.935 537.986 498.104 539.64 496.26 541.254C490.707 546.113 485.061 550.875 479.684 555.922C474.062 561.197 468.813 566.869 463.205 572.159C459.499 575.656 455.385 578.717 451.569 582.103C448.222 585.072 445.363 588.295 445.897 593.377C446.046 594.796 445.444 597.27 444.511 597.665C439.186 599.919 439.691 604.355 440.105 608.602C440.491 612.557 440.509 615.83 435.752 617.205C434.644 617.525 433.834 619.271 433.128 620.5C432.076 622.328 431.25 624.285 430.307 626.177C426.03 634.762 421.907 636.615 412.398 634.235C406.375 632.727 404.546 634.143 401.882 639.987C397.689 649.185 392.744 658.037 388.449 667.191C386.827 670.646 385.522 674.47 385.122 678.237C384.099 687.877 383.767 697.588 382.976 707.255C381.231 728.57 379.477 749.988 371.913 770.175C365.832 786.404 358.057 801.884 346.432 815.136C340.863 821.485 336.061 828.506 330.521 834.883C326.144 839.92 321.537 844.889 316.385 849.097C304.596 858.729 292.57 868.09 280.336 877.151C270.936 884.114 261.088 890.476 251.406 897.055C247.663 899.597 243.955 902.237 239.995 904.4C236.382 906.374 233.908 908.226 236.441 912.784C238.505 916.498 240.354 920.374 241.827 924.353C242.479 926.112 242.256 928.352 241.922 930.287C241.091 935.105 240.381 940.023 238.738 944.582C238.165 946.174 235.089 947.48 233.001 947.76C230.27 948.126 229.125 949.41 229.059 951.735C228.911 957.01 228.244 962.435 229.192 967.538C230.589 975.055 228.326 981.957 226.94 988.965C225.901 994.218 220.373 995.06 216.274 995.738C206.621 997.333 196.82 998.401 187.045 998.759C180.757 998.989 174.347 997.916 168.11 996.775C164.636 996.139 164.09 992.888 165.504 990.012C168.032 984.872 170.444 979.547 173.83 974.987C178.257 969.024 179.912 962.362 180.972 955.339C181.045 954.854 180.745 954.067 180.979 953.886C190.599 946.447 177.799 943.172 177.69 937.464C177.675 936.701 173.758 936.013 171.666 935.296C171.752 935.148 171.922 934.433 172.251 934.35C178.926 932.67 179.89 931.63 176.131 925.679C172.179 919.423 174.069 913.798 175.509 907.749C176.321 904.339 177.774 902.773 182.622 905.883C179.884 900.215 177.611 896.192 175.944 891.931C171.058 879.438 166.232 866.915 161.714 854.285C154.634 834.491 147.404 814.734 141.077 794.696C137.789 784.286 136.116 773.342 134.063 762.573C132.687 755.35 132.13 747.971 130.773 740.743C130.316 738.308 129.002 735.634 127.248 733.923C123.304 730.076 121.954 725.782 121.86 720.307C121.682 709.796 120.86 699.283 119.964 688.8C119.126 678.992 123.093 670.367 125.96 661.436C127.374 657.033 128.961 652.652 129.927 648.144C132.54 635.963 134.815 623.709 137.328 611.506C138.065 607.927 138.565 604.87 136.104 601.321C134.121 598.46 133.502 594.363 133.14 590.728C132.415 583.425 127.352 580.974 121.975 581.082C118.206 581.158 116.644 579.933 114.75 576.353C109.813 567.019 114.76 557.823 112.827 547.988C108.992 549.64 104.171 550.99 100.19 553.615C95.1285 556.951 89.6781 558.469 84.0037 560.177C71.5819 563.915 59.6307 561.612 47.4518 559.33C41.6891 558.25 35.6924 558.441 29.8072 557.985C26.2137 557.707 22.4069 557.903 19.1308 556.701C17.2988 556.029 15.3337 552.995 15.2135 550.921C14.9203 545.863 15.5146 540.728 16.0394 535.654C16.5199 531.008 17.6768 526.417 17.9189 521.77C18.0129 519.965 16.8797 517.552 15.4989 516.32C12.0118 513.21 7.92345 510.78 4.37199 507.733C2.83574 506.414 1.78313 504.348 0.984908 502.425C0.520674 501.306 0.478377 499.25 1.17168 498.595C2.17332 497.648 4.1934 496.94 5.4597 497.289C7.97014 497.98 10.2623 499.464 13.1816 500.058C10.8867 496.989 8.48125 493.995 6.3452 490.819C5.32536 489.302 4.16179 487.398 4.27135 485.75C4.37053 484.259 5.86168 482.494 7.22941 481.598C7.97362 481.111 10.0749 481.804 10.987 482.615C16.1885 487.235 21.1207 492.16 26.3358 496.764C29.9791 499.981 33.9219 502.859 37.7475 505.868C38.6149 506.55 39.9811 506.942 40.3901 507.81C45.1939 518.006 55.4447 522.167 64.0683 527.088C79.3251 535.792 83.2139 533.179 95.5451 521.418C100.911 516.3 101.346 512.272 100.643 504.953C99.8837 497.048 96.3205 491.523 92.731 485.713C86.9014 476.278 82.7735 466.22 78.9563 455.902C76.0064 447.927 71.6761 440.425 69.1622 432.338C66.407 423.476 65.1788 414.149 63.0129 405.089C61.0232 396.767 58.5383 388.564 56.5414 380.243C55.6727 376.623 55.0966 372.846 55.0473 369.132C54.8727 355.969 54.5925 342.788 55.0953 329.642C55.5904 316.696 56.943 303.782 58.0091 290.861C58.5734 284.021 59.1559 277.175 60.04 270.371C61.2309 261.207 58.1702 252.919 55.2316 244.574C53.4862 239.617 51.69 234.678 49.0619 229.879C48.3744 242.109 47.5533 254.333 47.0867 266.572C46.9595 269.911 45.5198 271.968 42.7561 272.946C41.3855 273.431 38.4537 273.126 38.1667 272.406C37.1118 269.759 35.7543 266.428 36.538 264.011C38.559 257.779 39.8907 252.079 38.3692 245.224C37.1516 239.739 38.8662 233.555 39.5345 227.71C40.5986 218.403 44.5292 208.937 40.8296 199.791C36.168 188.267 34.5815 176.407 33.9919 164.231C33.3364 150.695 32.7425 137.155 31.9549 123.626C31.7505 120.114 30.991 116.627 30.3618 113.151C29.775 109.909 29.6233 107.061 31.8533 104.026C36.4873 97.7213 40.2696 90.7819 45.0061 84.5634C48.2008 80.3692 52.6786 77.1773 56.14 73.1563C62.5577 65.7012 68.7947 58.0784 74.8268 50.3081C78.464 45.6228 81.5113 40.4832 84.9715 35.6537C85.6776 34.6682 86.9736 33.6694 88.1175 33.5035C96.2276 32.3272 101.737 26.8297 107.562 21.9438C113.333 17.1023 118.357 11.19 124.616 7.1561C131.907 2.45789 140.206 -0.309149 149.363 1.52271C159.33 3.51666 169.315 5.53162 179.378 6.89781C188.251 8.10232 195.979 3.24156 204.221 1.06864C206.048 0.586907 209.766 1.10132 210.007 1.92248C210.768 4.51316 211.467 8.51519 210.07 10.0819C206.077 14.5609 200.975 17.9665 193.902 17.4322C196.389 24.2579 198.762 30.9366 201.256 37.5699C203.525 43.6027 206.331 49.4718 208.064 55.6479C208.746 58.0807 207.998 62.7782 206.43 63.5845C203.332 65.1778 199.76 63.4746 197.897 59.9634C194.97 54.4447 192.123 48.8831 188.551 43.632C188.551 49.4491 188.807 55.2813 188.464 61.0782C188.226 65.1013 188.083 69.5869 186.221 72.9328C184.226 76.5177 179.838 75.2079 179.02 70.9409C177.739 64.2598 176.922 57.4872 176.013 50.7393C175.793 49.1086 175.98 47.4231 174.937 45.0121C173.613 46.5603 172.227 48.0605 170.979 49.668C169.111 52.0746 167.728 55.0336 165.439 56.8974C161.8 59.8592 157.315 58.1118 156.472 53.6135C155.693 49.4589 155.148 45.2062 155.082 40.9876C155.017 36.8083 153.475 34.5078 149.266 33.8668C146.859 33.5002 144.53 32.6419 142.152 32.0585C136.809 30.7472 135.609 35.7579 133.38 38.4268C126.687 46.4451 120.514 54.9035 114.242 63.2677C107.579 72.1525 101.126 81.1958 94.4045 90.0353C90.2179 95.5409 85.8476 100.923 81.3069 106.14C70.469 118.592 72.1936 118.903 76.8598 132.728C80.1246 142.399 84.3051 151.897 84.0956 162.5C84.035 165.564 85.1242 168.65 86.1742 171.576C85.7823 163.096 85.4776 154.611 84.9739 146.138C84.4806 137.842 87.4509 130.426 91.4346 123.611C95.8213 116.106 100.926 108.948 106.388 102.179C108.645 99.3835 112.71 98.0893 115.82 95.9212C117.101 95.0283 117.823 93.2465 119.154 92.5275C128.719 87.3624 138.353 82.3646 149.79 83.2484C156.467 83.7642 159.445 80.9044 161.188 74.4814C161.776 72.3133 164.625 70.0862 166.912 69.3488C167.979 69.0049 170.411 71.9688 171.746 73.7851C172.4 74.6744 172.237 76.4278 171.964 77.6858C171.063 81.8338 172.709 83.1822 176.617 85.1551C187.823 90.8124 198.594 97.2759 206.073 108.13C214.008 119.646 219.862 131.906 220.855 145.892C221.399 153.562 220.365 161.343 220.05 169.075C220.01 170.074 219.916 171.083 220.011 172.072C221.044 182.885 218.466 193.15 215.541 203.411C214.962 205.444 215.249 207.942 215.813 210.043C217.943 217.976 217.493 219.688 211.711 224.075C212.862 227.77 214.415 231.15 214.881 234.673C215.414 238.703 212.301 240.71 209.17 238.318C204.482 234.737 202.325 236.251 199.651 240.793C197.46 244.515 193.616 247.225 190.971 250.735C189.692 252.432 189.483 254.934 188.395 258.289C190.646 257.507 191.435 257.409 192.009 257.004C195.046 254.864 196.393 255.994 196.998 259.294C198.157 265.626 202.194 268.722 208.475 269.06C216.507 269.492 224.553 270.084 232.522 271.136C237.424 271.783 242.171 273.529 247.032 274.577C251.149 275.464 253.81 278.115 255.852 281.464C259.757 287.867 262.656 294.535 263.093 302.296C263.888 316.393 261.087 329.942 258.302 343.601C256.971 350.13 257.804 357.106 256.411 363.613C254.112 374.343 250.651 384.818 247.969 395.474C246.068 403.028 244.569 410.688 243.129 418.345C242.998 419.041 244.46 420.549 245.436 420.846C248.496 421.78 251.783 422.02 254.775 423.102C256.967 423.894 258.678 426.262 260.869 426.761C268.767 428.556 272.837 435.595 279.084 439.621C280.722 440.675 281.412 443.736 281.855 446.009C283.332 453.577 285.882 460.654 291.591 465.999C298.71 472.663 305.027 479.545 306.456 489.844C306.823 492.485 309.313 494.834 310.838 497.311C315.515 504.909 319.17 512.614 320.374 521.866C321.444 530.083 325.5 537.888 328.019 545.944C331.426 556.844 334.834 567.752 337.827 578.77C339.436 584.696 333.48 584.961 330.891 587.147C330.891 601.513 330.891 615.724 330.586 630.559C330.281 631.98 330.281 632.778 330.281 634.185C330.948 632.992 331.305 632.355 331.661 631.719ZM111.143 203.666C109.142 204.294 107.142 204.921 105.239 205.518C107.83 210.342 110.811 214.978 112.868 219.993C114.715 224.495 116.47 228.565 122.26 229.42C122.503 228.606 122.584 226.822 123.161 226.644C128.959 224.849 124.903 222.134 123.919 219.737C123.128 217.807 122.277 215.902 121.453 213.986C121.117 212.557 120.131 211.207 118.926 210.096C116.635 207.984 114.219 206.007 111.143 203.666ZM25.0386 534.098C25.0386 537.687 25.0386 541.276 25.0386 544.831C30.7029 545.325 35.6904 545.76 40.6775 546.194C41.4093 536.851 36.1866 528.674 28.4094 526.205C27.8575 527.37 27.2796 528.534 26.751 529.72C26.2295 530.89 25.7578 532.082 25.0386 534.098Z" fill="#A3A3A3"/>
</svg>
