<svg width="494" height="1012" viewBox="0 0 494 1012" fill="none" xmlns="http://www.w3.org/2000/svg">
<path d="M129.047 390.428C128.963 374.986 129.121 359.987 128.887 344.994C128.816 340.469 127.43 335.979 127.091 331.439C126.902 328.911 128.058 326.277 127.84 323.757C127.536 320.244 126.572 316.781 125.784 313.32C124.596 308.106 122.465 302.944 122.276 297.704C122.002 290.115 119.36 284.729 113.062 280.353C107.455 276.457 102.653 271.412 97.4248 266.956C94.9046 264.808 92.2223 262.85 89.6135 260.806C88.9808 261.024 88.3482 261.242 87.7155 261.459C87.2632 271.635 86.8526 281.813 86.3233 291.985C86.2171 294.028 86.1906 297.408 85.2003 297.795C83.1239 298.604 79.7089 298.723 78.1778 297.481C76.354 296.001 74.3576 291.938 75.1544 290.48C80.1361 281.365 76.7485 271.126 80.4464 261.986C79.9804 261.89 79.5145 261.794 79.0485 261.698C78.0347 266.132 76.7957 270.529 76.0581 275.008C74.8613 282.276 74.6007 289.76 72.7175 296.825C71.8419 300.11 68.0845 302.627 65.6268 305.5C59.5515 300.246 58.3262 295.806 62.2758 289.256C68.2264 279.388 69.6551 268.862 69.2078 257.696C69.0297 253.251 69.2942 248.634 73.8227 245.955C63.1308 236.802 52.2018 227.887 41.7984 218.397C33.7878 211.089 26.4974 202.996 18.77 195.371C14.7426 191.397 10.4523 187.69 6.30025 183.841C2.97432 180.758 1.10072 177.048 1.1075 172.394C1.12477 160.593 0.551653 148.765 1.17409 136.999C1.56465 129.618 3.72597 122.334 5.02785 114.995C6.71907 105.461 8.06471 95.8553 10.1109 86.3998C11.2445 81.1612 13.4986 76.1645 15.2563 71.0617C16.1782 68.3856 18.0875 65.6331 17.8678 63.0588C17.2266 55.5494 21.2293 50.1667 24.97 44.5303C29.5319 37.6566 34.1015 30.788 38.6358 23.8963C43.0911 17.1245 47.2797 10.1621 52.0314 3.60662C54.5615 0.115872 59.7315 0.291699 63.3395 2.63851C65.6794 4.1605 68.4778 5.02077 71.1362 6.00008C75.4519 7.58997 79.7357 8.5622 81.2942 14.203C82.5222 18.648 85.2963 22.5133 85.4693 27.5478C85.5481 29.8404 88.617 31.9311 90.0181 34.2978C93.0488 39.4168 91.1403 43.5622 85.4287 42.83C79.7355 42.1002 76.6558 44.8174 73.1662 48.1425C71.7389 49.5026 69.4996 50.9434 67.7263 50.8304C62.6655 50.508 58.7686 52.1061 55.3625 55.7368C53.11 58.1379 50.0018 59.857 48.1641 62.4988C45.3637 66.5248 43.3013 70.3003 45.5676 76.3324C47.5715 81.6661 45.6712 88.4337 45.6509 94.5687C45.6226 103.112 45.4808 111.668 45.877 120.196C46.1963 127.068 47.3263 133.899 47.9373 140.762C48.4192 146.176 48.5081 151.629 49.0954 157.029C49.276 158.69 50.1054 160.768 51.3515 161.746C59.6165 168.227 68.0532 174.491 76.4807 180.763C80.9988 184.125 85.5574 187.44 90.2077 190.615C91.7675 191.68 93.736 193.03 95.398 192.885C99.28 192.544 101.514 194.858 104.344 196.686C107.347 198.625 110.952 200.754 114.304 200.772C119.749 200.801 123.726 203.598 128.223 205.601C133.291 207.859 138.471 209.862 143.587 212.013C144.901 212.566 146.402 212.998 147.396 213.933C155.317 221.38 164.835 225.689 175.03 229.084C179.461 230.559 183.627 233.292 187.41 236.126C191.954 239.528 196.878 239.792 201.781 238.532C207.098 237.165 212.366 235.192 217.223 232.656C219.086 231.684 220.195 228.526 220.736 226.156C220.932 225.298 218.568 223.692 217.182 222.688C216.01 221.839 214.564 221.366 212.686 220.46C213.05 218.053 214.282 215.118 213.664 212.646C212.929 209.706 210.692 207.106 208.941 204.468C207.373 202.106 204.691 200.114 204.056 197.571C202.244 190.315 197.128 185.284 193.01 179.621C186.966 171.309 182.844 162.199 182.159 152.027C181.497 142.192 180.922 132.118 182.364 122.456C183.339 115.928 187.289 109.558 190.964 103.789C195.776 96.2352 200.639 88.2115 207.259 82.4231C218.197 72.858 230.098 63.9017 245.916 64.0065C252.548 64.0504 256.821 60.4356 259.946 55.1233C261.009 53.3162 261.541 51.1965 263.136 50.029C262.976 45.1589 263.902 40.1631 267.616 39.0784C269.679 38.4761 272.959 38.9947 274.516 40.3536C277.642 43.0808 276.254 49.0185 272.579 53.1228C274.972 58.2659 277.078 63.2223 279.579 67.9704C280.698 70.0956 282.239 72.4576 284.228 73.5849C292.119 78.0583 297.563 84.5606 301.745 92.4367C303.929 96.5498 307.226 100.152 308.928 104.42C310.923 109.427 311.548 114.962 313.108 120.165C314.429 124.566 316.274 128.808 317.818 133.144C320.225 139.905 323.072 146.571 324.691 153.52C325.297 156.122 322.791 159.355 322.045 162.385C319.775 171.601 319.049 180.579 320.58 190.362C322.85 204.868 317.253 218.044 308.057 229.576C305.172 233.195 303.173 237.524 300.256 241.112C297.479 244.53 294.033 247.404 290.287 251.104C292.784 255.13 293.886 262.003 301.98 262.253C302.218 262.261 302.409 262.731 302.68 262.871C308.832 266.053 316.03 268.09 320.945 272.611C333.204 283.885 349.555 287.986 362.444 297.903C368.569 302.615 374.551 307.515 380.728 312.157C386.985 316.859 393.583 321.123 399.669 326.029C402.442 328.264 404.407 331.532 406.61 334.429C407.771 335.956 408.376 337.98 409.712 339.289C417.594 347.012 425.867 354.349 433.519 362.288C440.499 369.532 447.526 376.911 453.231 385.134C456.495 389.839 457.636 396.248 458.852 402.073C459.887 407.027 459.618 412.247 460.002 417.343C460.557 424.706 459.001 431.541 454.467 438.092C464.206 443.681 473.698 448.922 482.955 454.548C486.481 456.691 489.977 459.318 492.495 462.506C493.841 464.21 493.546 467.687 492.981 470.131C492.813 470.855 488.992 471.49 487.214 470.95C480.583 468.934 474.095 466.444 467.592 464.026C467.04 463.821 466.78 462.834 466.188 461.901C464.858 468.988 470.098 472.553 473.477 476.843C476.238 480.35 479.845 483.176 482.804 486.544C486.578 490.841 487.18 495.396 484.671 497.804C482.259 500.119 475.621 499.188 472.225 495.726C466.924 490.323 461.835 484.711 456.637 479.206C456.317 478.867 455.829 478.685 455.231 478.313C452.39 487.528 456.902 495.009 460.347 502.707C460.916 503.979 461.529 505.231 462.108 506.498C463.5 509.544 464.267 512.78 460.568 514.504C456.756 516.28 452.792 514.695 451.053 511.413C447.225 504.188 444.097 496.571 441.018 488.979C439.158 484.392 436.112 481.761 431.243 482.089C427.482 482.341 425.023 480.841 422.632 478.228C414.299 469.121 408.066 459.047 409.112 446.18C409.611 440.031 410.677 433.96 414.628 428.512C419.083 422.368 421.087 414.824 416.721 408.035C414.284 404.248 409.261 402.155 405.49 399.188C400.303 395.108 395.197 390.924 390.223 386.918C392.035 391.85 390.999 398.67 398.272 401.376C399.15 401.703 399.96 405.228 399.552 405.519C396.196 407.912 392.765 410.657 388.917 411.767C385.508 412.75 382.378 408.137 382.978 404.455C383.698 400.044 384.214 395.6 384.819 391.17C384.204 391.092 383.589 391.015 382.975 390.938C381.95 399.065 380.878 407.187 379.939 415.325C379.731 417.127 379.293 419.456 380.158 420.733C383.999 426.409 380.627 430.041 377.147 433.887C375.578 435.621 374.295 436.569 372.113 434.65C366.489 429.703 365.822 417.552 370.511 411.496C372.131 409.404 372.476 406.325 373.316 403.945C370.085 403.945 367.665 404.281 365.379 403.869C361.641 403.195 360.224 397.85 362.339 394.309C364.519 390.659 366.275 386.758 368.297 383.011C370.22 379.447 368.56 377.348 365.387 376.128C358.883 373.627 352.326 371.261 345.743 368.978C344.753 368.635 343.285 368.657 342.407 369.158C332.321 374.902 321.007 379.257 313.886 388.831C309.294 395.005 302.939 399.83 300.641 408.147C299.446 412.473 295.61 416.291 295.998 421.496C296.337 426.06 296.675 430.625 297.094 435.182C297.163 435.929 297.488 436.771 297.965 437.343C301.875 442.028 305.887 446.628 309.795 451.316C314.241 456.649 318.784 461.917 322.917 467.487C324.288 469.334 324.72 471.986 325.223 474.346C325.992 477.952 325.789 481.898 327.169 485.212C330.477 493.155 335.024 500.608 337.985 508.658C339.958 514.024 340.674 520.057 340.872 525.828C341.291 537.982 340.04 550.259 341.286 562.298C342.397 573.036 342.948 583.904 344.553 594.451C345.996 603.939 351.89 612.652 359.201 619.799C365.447 625.904 371.555 632.216 377.043 638.988C378.627 640.943 378.93 645.228 377.949 647.704C375.852 652.996 373.045 658.195 369.59 662.715C364.703 669.108 359.174 675.055 353.534 680.815C348.369 686.09 348.052 686.47 351.566 694.268C351.634 694.417 351.765 694.537 351.839 694.684C356.817 704.732 356.387 705.939 347.009 712.166C343.096 714.764 338.634 717.49 339.632 723.244C340.259 726.861 341.843 730.302 342.835 733.867C344.97 741.536 345.215 740.72 339.201 744.149C334.892 746.606 330.513 748.94 325.835 751.511C326.222 757.89 326.832 764.309 326.845 770.728C326.848 772.336 325.151 775.131 323.86 775.373C311.764 777.633 310.5 787.211 309.055 796.649C308.681 799.092 309.123 801.649 308.955 804.138C308.848 805.736 308.82 807.756 307.884 808.815C302.693 814.684 302.695 822.186 301.022 829.165C297.61 843.408 293.963 857.599 290.845 871.906C288.252 883.801 282.333 894.023 276.506 904.468C274.369 908.299 274.656 913.528 274.029 918.145C273.344 923.191 270.595 926.163 266.215 928.843C261.543 931.702 257.669 935.957 253.768 939.919C252.897 940.803 252.69 943.384 253.336 944.534C255.942 949.176 254.037 952.986 251.975 957.037C248.849 963.177 245.976 969.444 242.735 976.202C247.462 984.122 257.042 986.848 264.733 992.136C268.807 994.938 273.054 997.957 275.928 1001.84C277.364 1003.78 276.083 1007.91 275.471 1010.93C275.402 1011.28 271.626 1011.19 269.683 1010.78C262.31 1009.19 255.515 1004.99 247.563 1006.01C244.338 1006.43 241.104 1006.91 237.862 1007.02C234.402 1007.14 230.342 1007.99 227.571 1006.55C219.952 1002.59 211.991 1003.13 203.969 1002.94C199.364 1002.83 194.72 1002.64 190.18 1001.93C184.436 1001.03 181.742 996.977 183.421 991.5C185.077 986.095 187.26 980.821 189.599 975.665C192.552 969.155 192.996 963.529 188.429 957.047C185.308 952.618 184.585 946.44 183.116 940.957C182.817 939.84 184.072 938.359 184.445 937.001C185.633 932.67 187.105 928.364 187.659 923.947C187.821 922.653 185.254 921.049 184.001 919.535C183.086 918.429 182.276 917.237 180.92 915.411C186.987 915.411 191.688 915.411 197.567 915.411C194.655 910.655 192.247 906.108 189.246 901.994C186.29 897.941 185.153 892.12 188.255 889.227C192.7 885.08 197.565 881.313 202.577 877.857C210.131 872.648 210.317 874.448 208.484 864.767C207.137 857.655 208.758 849.99 208.968 842.569C209.011 841.044 209.102 839.257 208.406 838.022C206.227 834.152 203.867 830.352 201.23 826.781C198.321 822.843 195.237 818.988 191.857 815.454C185.768 809.09 178.886 803.413 173.342 796.627C169.922 792.441 168.342 786.743 165.982 781.702C165.229 780.095 164.754 778.348 163.921 776.788C161.959 773.113 159.465 772.089 155.307 774.155C147.8 777.883 140.161 781.498 132.253 784.216C126.026 786.356 119.709 785.859 113.096 783.271C107.054 780.906 100.094 780.51 93.4854 780.107C89.4309 779.86 86.9293 778.297 85.4513 774.955C84.025 771.731 85.1137 768.785 87.8555 766.726C92.4684 763.262 97.213 759.971 101.939 756.661C104.843 754.627 107.96 752.873 110.729 750.676C117.151 745.581 123.419 740.292 131.035 734.024C129.831 733.413 128.669 732.782 127.472 732.223C121.012 729.209 118.823 723.839 118.977 717.09C119.043 714.193 119.776 711.112 114.979 710.683C113.524 710.552 111.14 707.272 111.238 705.55C111.778 696.006 104.355 693.093 98.3651 688.776C95.3206 686.581 92.2095 684.202 89.9251 681.282C83.3828 672.922 77.547 664 70.8583 655.766C65.4475 649.105 58.7052 643.509 53.4449 636.747C45.7099 626.803 38.6828 616.302 31.5144 605.927C24.8699 596.311 21.9905 584.55 13.5052 575.801C10.0855 572.275 8.50679 566.528 7.19533 561.503C5.53505 555.141 4.66579 548.516 4.08089 541.948C3.55098 535.998 5.49788 530.483 8.81783 525.451C12.2182 520.297 14.6722 514.265 18.9099 509.968C28.6464 500.096 41.1967 496.765 54.9104 495.818C68.5118 494.878 82.502 496.035 95.5289 490.345C96.952 489.723 98.8367 489.84 100.455 490.038C107.856 490.945 111.652 486.328 115.621 481.131C118.944 476.781 122.874 472.624 127.31 469.474C131.551 466.462 131.547 462.126 132.94 458.157C134.569 453.516 136.086 448.833 137.511 444.125C137.916 442.788 138.145 441.249 137.915 439.893C137.078 434.96 135.72 430.102 135.093 425.148C133.635 413.625 133.757 401.844 129.047 390.428ZM424.065 464.121C426.282 465.611 428.498 467.102 430.714 468.592C431.105 468.371 431.495 468.149 431.886 467.928C429.218 462.059 426.551 456.19 424.024 450.63C424.024 454.745 424.024 459.035 424.065 464.121Z" fill="#A3A3A3"/>
</svg>
