<svg width="833" height="953" viewBox="0 0 833 953" fill="none" xmlns="http://www.w3.org/2000/svg">
<path d="M173.916 358.514C170.463 354.812 167.111 351.439 164.023 347.84C162.309 345.842 160.8 343.585 159.612 341.236C156.631 335.339 151.189 332.54 145.532 330.504C141.474 329.043 136.916 328.968 132.579 328.289C131.857 328.176 131.069 328.28 130.404 328.035C123.1 325.35 115.895 322.368 108.498 319.976C102.876 318.158 97.7174 314.907 91.6508 314.452C89.8706 314.319 88.0951 314.115 86.3209 313.913C84.1197 313.661 81.8931 313.52 79.7281 313.082C71.229 311.36 62.8217 308.971 54.2467 307.886C40.4733 306.145 28.6908 299.583 16.6259 293.637C12.7505 291.728 9.80557 288.502 7.42132 284.825C5.65376 282.099 3.75996 279.454 1.87246 276.808C-0.715011 273.181 -0.460915 268.818 1.65555 265.837C6.57233 258.913 11.7777 251.896 19.9123 248.268C24.2978 246.313 28.9349 244.922 33.4568 243.271C37.0465 241.961 40.6492 240.684 44.2184 239.32C50.1742 237.044 56.3874 235.968 62.6054 234.686C66.5917 233.864 70.459 233.53 74.4376 233.432C74.8845 233.421 75.4118 233.515 75.7648 233.317C81.643 230.01 88.0816 232.532 94.1734 231.516C94.3168 231.492 94.4883 231.489 94.6168 231.545C102.365 234.917 110.543 232.866 118.51 233.466C121.014 233.654 123.494 234.156 125.993 234.435C128.054 234.666 130.125 234.863 132.196 234.927C134.885 235.01 137.58 234.967 140.271 234.94C142.779 234.915 145.148 234.783 147.65 233.787C149.516 233.044 151.882 232.211 154.401 233.241C155.962 233.878 158.4 234.222 159.81 232.378C163.786 227.181 169.491 226.565 175.363 226.062C178.28 225.812 181.085 225.281 183.898 226.736C185.57 227.601 187.31 227.025 189.001 226.183C192.835 224.274 196.889 222.768 200.594 220.645C206.722 217.134 212.647 213.264 218.657 209.546C218.558 209.2 218.46 208.853 218.361 208.507C216.413 208.507 214.418 208.238 212.525 208.564C208.77 209.211 205.772 208.421 202.744 205.88C200.722 204.182 197.675 203.728 195.128 202.624C193.829 202.06 192.422 201.504 191.406 200.572C187.797 197.259 184.371 193.867 179.413 192.393C176.895 191.645 174.974 189.695 173.617 187.152C171.312 182.834 168.578 178.74 167.768 173.779C167.727 173.524 162.203 163.492 162.079 163.226C161.404 161.773 160.408 160.357 160.178 158.829C159.437 153.915 158.81 148.901 164.509 146.179C163.761 140.396 163.066 134.88 160.258 129.855C159.634 128.738 159.399 127.285 159.367 125.978C159.261 121.643 158.876 117.242 159.462 112.986C160.014 108.972 161.67 105.112 162.814 101.177C163.179 99.9218 163.443 98.6378 163.779 97.3738C163.967 96.6661 163.987 95.7033 164.46 95.315C168.201 92.2433 168.03 87.4709 169.758 83.5359C170.164 82.6109 170.622 81.3507 171.395 81.0053C175.213 79.3001 176.078 75.4581 178.047 72.4075C178.911 71.0697 179.784 69.6474 180.963 68.6208C185.089 65.0296 189.394 61.6444 193.523 58.0565C194.336 57.35 194.756 56.1271 195.203 55.0767C195.969 53.2748 197.22 51.8279 199.186 52.1927C204.442 53.1685 208.146 49.768 212.39 47.8933C214.937 46.7683 217.357 45.3071 219.977 44.4135C221.396 43.9295 223.464 43.7282 224.631 44.4227C228.554 46.7579 231.772 44.488 234.533 42.7333C237.2 41.0392 238.682 37.8524 238.875 34.3575C239.004 32.0124 239.761 29.6662 239.643 27.3507C239.42 22.9933 242.379 21.4544 245.5 19.924C247.07 19.1538 248.685 18.4746 250.488 17.6596C249.386 14.9462 248.456 12.6335 247.508 10.3283C246.64 8.21914 246.187 6.09432 247.307 3.93692C248.472 1.69352 251.643 -0.43726 253.374 0.0776832C256.111 0.891633 258.074 2.72881 258.591 5.58143C259.093 8.34609 259.457 11.1837 259.428 13.9845C259.392 17.4287 260.618 20.1649 262.456 23.0173C264.817 26.6812 268.085 29.7877 268.94 34.491C269.479 37.459 269.545 39.8607 267.052 41.6479C265.492 42.7665 265.618 44.0673 265.874 45.5524C266.181 47.3268 267.622 47.1247 268.926 47.4872C272.706 48.5385 276.434 49.794 280.141 51.0868C282.572 51.9343 282.006 54.1534 282.038 55.9117C284.479 56.7426 286.828 57.4754 289.124 58.3484C290.518 58.8784 291.812 59.5348 291.888 61.4464C291.909 61.9679 292.893 62.7384 293.552 62.8935C295.671 63.3914 296.423 64.8006 296.505 66.7155C301.497 68.2964 301.497 68.2964 301.851 74.0299C303.482 74.524 305.536 74.6036 306.677 75.6652C307.572 76.4983 307.338 78.5454 307.669 80.4088C310.306 81.068 312.609 82.4722 311.863 86.1214C314.364 90.2677 314.703 95.206 318.696 99.0537C322.539 102.757 325.094 108.205 326.167 113.903C327.231 119.549 328.493 125.158 329.629 130.791C329.948 132.373 330.373 133.99 330.33 135.58C330.123 143.16 330.369 150.823 329.281 158.285C328.41 164.255 329.184 170.147 328.577 176.038C327.899 182.615 327.759 189.228 324.138 195.259C322.476 198.026 321.905 201.467 321.53 204.929C321.015 209.688 319.455 214.371 318.005 218.98C317.088 221.896 315.556 224.618 314.305 227.417C314.635 227.629 314.952 227.974 315.106 227.912C319.049 226.319 322.961 226.623 327.189 226.909C334.104 227.379 341.126 227.763 348.136 226.463C353.199 225.524 358.463 225.498 363.643 225.408C372.447 225.255 381.353 226.178 390.036 225.138C397.938 224.192 405.767 224.392 413.627 224.188C420.645 224.005 427.81 223.31 434.651 224.427C440.19 225.33 445.968 224.324 451.315 226.597C452.353 227.038 453.664 226.907 454.85 226.913C460.533 226.944 466.277 226.402 471.886 227.047C482.592 228.279 493.301 227.891 504.014 228.139C507.988 228.231 512.006 229.74 515.896 229.393C522.092 228.839 528.286 228.327 534.484 227.819C541.351 227.255 548.201 225.77 554.895 224.049C560.245 222.672 565.586 222.1 571.048 221.642C575.989 221.228 580.812 219.543 585.75 218.929C591.039 218.271 596.398 218.149 601.732 217.91C605.14 217.758 608.577 218.175 611.828 216.58C612.685 216.16 613.88 216.391 614.921 216.389C619.856 216.381 624.792 216.327 629.725 216.433C632.087 216.484 634.442 216.858 636.801 217.077C639.752 217.351 642.701 217.7 645.659 217.866C652.491 218.248 659.327 218.718 666.166 218.813C672.069 218.895 677.551 217.649 681.907 212.981C683.269 211.522 685.731 211.088 688.233 209.934C688.702 208.481 689.261 206.346 690.082 204.317C690.9 202.297 691.879 200.324 692.973 198.438C694.195 196.333 695.134 194.262 695.004 191.708C694.793 187.55 694.792 183.449 694.061 179.26C692.901 172.618 696.496 168.291 702.585 168.865C705.653 169.154 707.123 171.693 708.727 173.649C710.047 175.259 710.741 177.64 711.052 179.775C712.018 186.402 711.771 192.994 709.566 199.425C709.204 200.481 709.229 201.671 709.039 203.063C713.731 204.499 718.087 205.859 722.461 207.16C724.852 207.87 727.315 208.358 729.67 209.167C732.749 210.226 735.047 212.252 736.192 215.391C737.13 217.962 738.424 220.183 740.913 221.637C743.17 222.956 743.953 225.26 744.009 227.731C744.096 231.617 744.069 235.508 743.965 239.393C743.939 240.354 743.538 241.352 743.124 242.247C741.361 246.06 740.78 249.793 743.176 253.621C746.928 259.613 747.803 266.309 747.832 273.221C747.842 275.573 748.457 277.933 748.359 280.271C748.304 281.59 747.359 282.871 746.882 284.008C738.857 285.514 737.747 281.186 735.98 274.661C735.486 272.835 735.42 270.884 734.856 269.085C733.248 263.959 729.538 261.378 723.339 261C718.159 260.684 712.95 260.697 707.794 260.172C702.471 259.63 697.185 259.902 691.889 259.851C687.239 259.806 682.244 258.781 677.791 256.579C674.832 255.116 671.879 255.521 668.7 256.281C661.131 258.091 653.451 259.438 645.823 261.011C644.099 261.366 642.411 261.888 640.701 262.312C632.541 264.334 624.425 266.56 616.207 268.31C606.45 270.388 596.531 271.734 586.828 274.017C580.865 275.42 574.944 276.107 568.869 276.283C565.791 276.373 562.734 277.086 559.658 277.423C551.436 278.325 543.21 279.191 534.982 280.044C529.674 280.594 524.335 280.912 519.057 281.665C512.94 282.537 506.873 283.766 500.787 284.854C500.06 284.984 499.357 285.268 498.627 285.368C489.407 286.625 480.118 287.51 470.983 289.219C464.059 290.514 457.338 292.883 450.511 294.713C448.101 295.359 445.656 295.891 443.206 296.359C438.86 297.189 434.497 297.931 430.141 298.705C429.701 298.783 429.235 298.768 428.816 298.903C420.662 301.543 412.518 304.212 404.361 306.844C400.725 308.017 399.071 310.853 398.991 314.287C398.896 318.379 398.882 322.375 400.218 326.579C402.574 333.993 403.269 341.918 405.26 349.47C406.896 355.675 407.342 361.974 407.726 368.26C408.114 374.631 408.149 381.107 407.413 387.429C406.987 391.09 405.191 394.824 403.197 398.017C400.401 402.496 398.506 407.277 396.961 412.222C396.041 415.167 395.029 418.449 399.28 420.091C399.831 420.304 400.157 421.237 400.477 421.89C402.339 425.686 405.804 427.09 409.585 427.202C413.485 427.317 416.673 429.072 420.038 430.512C421.537 431.154 422.952 431.999 424.385 432.788C427.355 434.422 429.191 437.061 428 440.139C426.048 445.18 429.27 447.987 431.771 451.058C433.717 453.449 436.172 455.483 438.615 457.402C444.221 461.805 449.862 466.178 455.682 470.29C458.675 472.405 460.654 475.1 461.527 478.47C462.607 482.638 464.832 485.72 468.527 487.851C472.599 490.199 474.791 494.265 476.91 498.111C478.782 501.508 481.441 503.858 484.231 506.277C487.115 508.777 490.52 510.818 491.678 514.891C492.139 516.509 493.468 517.187 495.233 516.708C496.667 516.32 498.172 516.147 499.558 515.64C504.144 513.965 507.658 515.451 510.488 519.137C512.204 521.371 513.894 523.625 515.595 525.87C519.397 530.889 524.799 533.627 530.678 534.514C537.623 535.562 542.671 539.551 547.722 543.61C551.404 546.569 554.582 550.171 557.888 553.58C562.27 558.098 567.411 561.581 572.677 564.948C575.91 567.014 579.192 569.125 581.994 571.712C585.334 574.797 589.445 576.474 593.125 578.906C595.817 580.685 598.444 582.688 600.694 584.99C605.459 589.866 610.016 594.951 614.553 600.045C620.16 606.343 625.572 612.816 631.245 619.053C633.832 621.897 636.866 624.33 639.651 626.997C641.672 628.931 643.709 630.861 645.571 632.944C647.45 635.047 649.281 637.23 650.836 639.575C652.196 641.628 653.439 643.855 654.217 646.178C656.68 653.531 658.949 660.95 661.194 668.374C662.389 672.326 663.938 676.288 664.32 680.34C664.782 685.255 666.775 689.437 668.75 693.736C671.465 699.646 674.273 705.519 676.799 711.511C678.516 715.583 679.551 719.953 681.379 723.968C683.382 728.368 683.433 732.9 683.301 737.508C683.23 739.977 683.981 741.945 685.273 744.13C689.628 751.492 693.078 759.249 694.204 767.915C694.509 770.26 695.927 772.526 697.108 774.678C700.58 781.007 704.315 787.194 707.697 793.569C709.692 797.329 711.106 801.393 712.981 805.223C714.792 808.922 716.988 812.434 718.783 816.141C721.124 820.973 722.474 826.092 722.691 831.505C722.84 835.206 723.269 838.895 723.435 842.596C723.516 844.425 724.244 845.68 725.76 846.65C727.988 848.075 728.602 849.878 728.02 852.683C726.67 859.177 730.525 863.788 734.805 867.816C737.204 870.074 738.769 872.661 739.544 875.655C740.159 878.032 739.956 880.611 740.254 883.084C740.531 885.391 740.828 887.718 741.412 889.959C741.986 892.166 742.931 894.276 744.025 897.283C745.653 897.939 748.378 898.671 750.711 900.061C754.27 902.18 757.52 904.809 760.968 907.123C769.679 912.97 778.372 918.848 787.209 924.498C788.845 925.544 791.176 926.156 793.099 925.986C800.679 925.319 807.179 928.497 813.784 931.307C816.68 932.539 819.563 933.274 822.729 933.438C825.031 933.557 827.479 934.148 829.518 935.197C831.858 936.4 832.168 939.185 832.038 941.483C831.63 948.646 827.509 952.296 820.179 952.324C811.059 952.358 801.877 952.98 792.835 952.137C784.633 951.374 776.459 951.49 768.281 951.059C757.944 950.516 747.635 949.435 737.301 948.792C734.668 948.628 731.985 949.231 729.326 949.502C724.047 950.039 718.779 950.792 713.486 951.064C709.818 951.253 706.117 950.757 702.429 950.62C698.862 950.488 695.279 950.178 691.73 950.389C687.186 950.659 682.871 949.731 678.546 948.665C673.853 947.508 672.609 943.783 672.312 939.669C672.004 935.399 671.774 930.976 673.596 927.002C675.569 922.7 674.304 918.542 673.876 914.311C673.802 913.589 673.24 912.829 673.377 912.188C673.937 909.571 672.377 908.018 670.808 906.388C668.463 903.951 665.852 901.812 664.423 898.513C663.578 896.561 663.333 895.01 664.124 893.061C664.895 891.162 665.507 889.153 665.84 887.134C666.324 884.197 664.686 882.393 661.537 882.54C656.446 882.777 651.971 881.57 647.74 878.576C645.646 877.094 642.78 876.721 640.289 875.78C636.978 874.531 633.528 873.522 630.437 871.854C626.685 869.83 623.195 867.299 619.685 864.854C616.418 862.579 613.373 859.976 610.044 857.802C607.086 855.869 604.018 853.955 600.745 852.688C593.501 849.883 587.305 845.272 580.583 841.581C576.325 839.244 572.125 836.775 568.061 834.118C560.537 829.2 554.605 822.568 548.758 815.833C545.428 811.997 542.919 807.7 540.195 803.46C536.103 797.09 530.434 791.737 523.419 788.557C520.773 787.358 517.255 787.659 514.19 787.92C510.826 788.207 507.473 789.055 504.213 789.998C501.434 790.802 499.027 792.431 498.051 795.369C496.942 798.706 495.692 801.929 495.454 805.608C495.181 809.815 493.998 814.03 492.717 818.086C491.355 822.403 487.772 824.896 484.128 827.37C477.069 832.162 470.142 837.159 463.322 842.287C460.362 844.512 457.801 847.27 455.059 849.787C454.841 849.987 454.512 850.15 454.426 850.397C452.84 854.941 448.611 857.296 445.894 860.853C443.434 864.072 441.561 867.899 440.183 871.729C439.334 874.092 439.987 876.97 439.8 879.605C439.643 881.819 439.46 884.073 438.9 886.207C438.231 888.759 436.674 890.539 433.883 891.368C425.441 893.874 417.066 896.607 408.265 899.378C408.073 902.235 407.892 905.477 407.629 908.713C407.278 913.021 405.363 914.631 400.968 914.301C398.901 914.146 396.84 913.621 394.784 913.664C385.092 913.866 375.838 916.029 368.139 922.085C365.118 924.462 363.282 928.368 360.992 931.638C360.251 932.696 359.704 933.914 359.209 935.117C357.438 939.411 357.46 939.429 353.228 939.457C349.817 939.48 346.493 939.667 343.093 940.484C339.39 941.373 335.411 941.492 331.573 941.355C325.573 941.141 319.842 942.153 314.098 943.71C310.58 944.665 306.91 945.057 303.31 945.714C302.442 945.873 301.561 946.015 300.724 946.284C294.877 948.163 288.921 948.626 282.778 948.454C275.036 948.238 267.277 948.68 259.524 948.755C253.108 948.818 246.602 949.419 240.298 948.572C233.76 947.695 227.083 947.714 220.642 945.487C216.416 944.026 211.878 942.935 207.144 943.267C204.546 943.45 201.87 942.631 199.24 942.202C193.58 941.278 187.797 940.778 182.302 939.249C175.668 937.403 169.294 934.63 162.782 932.333C154.978 929.58 147.374 926.436 140.291 922.08C133.217 917.728 126.052 913.523 118.898 909.301C115.797 907.47 114.243 904.854 114.425 901.243C114.606 897.679 114.879 894.117 114.952 890.551C114.979 889.25 114.744 887.866 114.291 886.646C112.411 881.587 112.869 876.848 115.47 872.104C117.98 867.526 119.398 862.556 119.516 857.278C119.526 856.83 119.401 856.314 119.577 855.944C121.404 852.111 121.189 847.871 122.073 843.86C123.428 837.71 124.349 831.573 124.029 825.244C123.945 823.575 124.477 821.73 125.207 820.194C127.063 816.293 125.956 812.829 124.28 809.257C120.024 800.187 115.369 791.306 112.894 781.463C111.465 775.783 109.17 770.322 107.293 764.752C107.059 764.057 107.005 763.301 106.85 762.578C105.346 755.578 103.083 748.79 101.161 741.914C99.1056 734.559 95.5899 727.973 92.6112 721.089C91.8594 719.351 91.553 717.408 90.7105 715.725C88.6654 711.641 86.3745 707.68 84.2795 703.62C82.4682 700.109 82.404 696.423 84.0166 692.867C87.6624 684.83 91.5978 676.921 95.1555 668.846C99.1722 659.729 103.848 651.025 109.481 642.79C112.468 638.423 114.785 633.602 117.6 629.108C119.011 626.856 120.744 624.775 122.531 622.797C126.897 617.965 131.291 613.152 135.839 608.493C139.879 604.354 144.222 600.511 148.28 596.388C151.407 593.211 154.073 589.554 157.361 586.57C160.289 583.912 163.958 582.087 166.994 579.531C171.276 575.927 175.238 571.944 179.414 568.21C181.295 566.528 183.181 564.704 185.386 563.568C189.442 561.476 191.622 558.127 191.213 553.915C190.598 547.572 193.723 542.446 195.587 536.897C196.8 533.284 198.077 529.669 199.659 526.207C203.019 518.858 205.202 510.909 210.752 504.653C213.204 501.89 215.459 498.943 215.905 494.993C215.984 494.291 217.225 493.556 218.077 493.132C223.745 490.315 227.099 485.564 229.288 479.847C229.76 478.614 229.895 477.257 230.247 475.973C230.552 474.863 230.628 473.463 231.352 472.735C234.49 469.582 233.968 466.172 232.481 462.591C229.679 455.846 226.596 449.22 225.293 441.925C224.739 438.829 222.898 436.51 220.2 434.464C215.883 431.191 211.133 428.29 207.996 423.629C204.705 418.737 202.746 413.268 202.031 407.53C201.292 401.596 199.673 395.966 197.456 390.514C196.245 387.536 194.368 384.794 192.556 382.104C189.408 377.434 186.235 372.764 182.772 368.329C180.131 364.947 177.025 361.928 173.916 358.514Z" fill="#A3A3A3"/>
</svg>
